<?xml version="1.0" encoding="utf-8"?>
<!-- Generator: Adobe Illustrator 23.0.6, SVG Export Plug-In . SVG Version: 6.00 Build 0)  -->
<svg version="1.1" id="Calque_1" xmlns="http://www.w3.org/2000/svg" xmlns:xlink="http://www.w3.org/1999/xlink" x="0px" y="0px"
	 viewBox="0 0 22.8 19.7" style="enable-background:new 0 0 22.8 19.7;" xml:space="preserve">
<style type="text/css">
	.st0{fill:#FFFFFF;}
</style>
<path class="st0" d="M18.1,9.8l-6.6-4.9c-0.1-0.1-0.2-0.1-0.3,0L7.5,7.7V5.4V5.3v0c0-0.1-0.1-0.2-0.2-0.2h0H7.2H6.4H6.2
	c-0.1,0-0.2,0.1-0.2,0.2v0.2v3.3L4.6,9.8c-0.1,0-0.1,0.1-0.1,0.2v8.8c0,0.1,0.1,0.2,0.2,0.2h5.2c0.1,0,0.2-0.1,0.2-0.2v-3.4h2.4v3.4
	c0,0.1,0.1,0.2,0.2,0.2H18c0.1,0,0.2-0.1,0.2-0.2V10C18.2,9.9,18.2,9.9,18.1,9.8z M6.6,5.6H7V8L6.6,8.3V5.6z M17.7,18.6h-4.7v-3.4
	c0,0,0,0,0,0c0-0.1-0.1-0.2-0.2-0.2H9.9c0,0,0,0,0,0c-0.1,0-0.2,0.1-0.2,0.2v3.4H5v-8.5l6.4-4.7l6.4,4.7L17.7,18.6z"/>
</svg>
