<svg xmlns="http://www.w3.org/2000/svg" width="22.75" height="19.689" viewBox="0 0 22.75 19.689"><g transform="translate(0 0)"><path d="M2.377,1.335l8.376,6.994h0a.352.352,0,0,1,.129.271h0v9.731a.357.357,0,0,1-.355.355H4.163a.357.357,0,0,1-.355-.355V13.524H.462v4.808a.357.357,0,0,1-.355.355H-6.257a.357.357,0,0,1-.355-.355V8.6a.364.364,0,0,1,.142-.284L1.906,1.322h0a.348.348,0,0,1,.471.013Zm7.794,7.434L2.133,2.055-5.9,8.769v9.207H-.249V13.168a.354.354,0,0,1,.355-.355H4.163a.354.354,0,0,1,.355.355v4.808h5.652Z" transform="translate(9.24 1.002)" fill="#fff"/><path d="M14.958,10.855a.358.358,0,0,0,.5-.04.352.352,0,0,0-.036-.5C14.242,9.3,4.649.746,4.183.733H4.16C3.587.751-5.859,9.264-7.081,10.317a.352.352,0,0,0-.036.5.358.358,0,0,0,.5.04l10.784-9.3Z" transform="translate(7.203 -0.733)" fill="#fff"/><path d="M-4.312,1.9H-5.765l.009,3.524,1.444-1.244Zm-1.808-.711H-3.6V4.509l-.124.107L-5.876,6.468l-.582.5,0-.769-.013-4.652V1.194Z" transform="translate(9.708 0.854)" fill="#fff"/></g></svg>