<?xml version="1.0" encoding="utf-8"?>
<!-- Generator: Adobe Illustrator 23.0.6, SVG Export Plug-In . SVG Version: 6.00 Build 0)  -->
<svg version="1.1" id="Calque_1" xmlns="http://www.w3.org/2000/svg" xmlns:xlink="http://www.w3.org/1999/xlink" x="0px" y="0px"
	 viewBox="0 0 22.8 21" style="enable-background:new 0 0 22.8 21;" xml:space="preserve">
<style type="text/css">
	.st0{fill:#004A60;}
	.st1{fill:#FFFFFF;}
</style>
<path class="st0" d="M3.5,0.8c2-1.1,4.8-1.2,7.9,0.9c3.1-2.1,5.9-2,7.9-0.9c1.3,0.7,2.2,1.8,2.8,3.2c0.6,1.5,0.8,3.1,0.6,4.8
	C22.2,13.1,18.9,18,11.6,21c-0.1,0-0.2,0-0.3,0l0,0C3.9,17.9,0.6,13,0.1,8.7c-0.2-1.6,0-3.3,0.6-4.8C1.2,2.6,2.2,1.5,3.5,0.8z"/>
<path class="st1" d="M11.4,2.8c0,0-3.8-3.5-7.6-1.4C2.7,2,1.8,3,1.3,4.2c-0.5,1.4-0.7,3-0.5,4.4c0.5,4,3.6,8.7,10.6,11.6
	c7-2.9,10.1-7.5,10.6-11.6c0.2-1.5,0-3-0.6-4.4C20.9,3,20.1,2,18.9,1.4C14.9-0.8,12,2.7,11.4,2.8z"/>
</svg>
