<svg xmlns="http://www.w3.org/2000/svg" width="22.751" height="20.96" viewBox="0 0 22.751 20.96"><path d="M19.3,3.576c-.036.009-3.768-3.492-7.558-1.4A5.768,5.768,0,0,0,9.262,5.02a8.451,8.451,0,0,0-.551,4.39c.5,4.043,3.595,8.687,10.589,11.584,6.994-2.9,10.086-7.54,10.589-11.584a8.5,8.5,0,0,0-.551-4.39,5.768,5.768,0,0,0-2.479-2.844C22.85-.036,19.89,3.447,19.3,3.576ZM11.4,1.554c2.048-1.129,4.825-1.2,7.9.88,3.075-2.075,5.852-2.008,7.9-.88A6.512,6.512,0,0,1,29.99,4.74a9.224,9.224,0,0,1,.6,4.754c-.533,4.288-3.79,9.2-11.144,12.206a.351.351,0,0,1-.284,0h0C11.8,18.7,8.538,13.782,8,9.495a9.178,9.178,0,0,1,.6-4.754A6.49,6.49,0,0,1,11.4,1.554Z" transform="translate(-7.924 -0.773)" fill="#fff"/></svg>