<svg xmlns="http://www.w3.org/2000/svg" width="12.122" height="11.167" viewBox="0 0 12.122 11.167"><path d="M13.985,2.267c-.019,0-2.008-1.861-4.027-.746A3.073,3.073,0,0,0,8.637,3.036a4.5,4.5,0,0,0-.294,2.339c.268,2.154,1.915,4.628,5.642,6.172C17.711,10,19.359,7.529,19.627,5.375a4.527,4.527,0,0,0-.294-2.339,3.073,3.073,0,0,0-1.321-1.515C15.877.342,14.3,2.2,13.985,2.267ZM9.776,1.189a3.91,3.91,0,0,1,4.209.469,3.91,3.91,0,0,1,4.209-.469,3.469,3.469,0,0,1,1.487,1.7A4.915,4.915,0,0,1,20,5.42c-.284,2.285-2.019,4.9-5.938,6.5a.187.187,0,0,1-.152,0h0C9.989,10.325,8.251,7.7,7.967,5.42a4.89,4.89,0,0,1,.322-2.533A3.458,3.458,0,0,1,9.776,1.189Z" transform="translate(-7.924 -0.773)" fill="#004a60"/></svg>