<?xml version="1.0" encoding="utf-8"?>
<!-- Generator: Adobe Illustrator 23.0.6, SVG Export Plug-In . SVG Version: 6.00 Build 0)  -->
<svg version="1.1" id="Calque_1" xmlns="http://www.w3.org/2000/svg" xmlns:xlink="http://www.w3.org/1999/xlink" x="0px" y="0px"
	 viewBox="0 0 22.8 21" style="enable-background:new 0 0 22.8 21;" xml:space="preserve">
<style type="text/css">
	.st0{fill:#004A60;}
</style>
<path class="st0" d="M3.5,0.8c2-1.1,4.8-1.2,7.9,0.9c3.1-2.1,5.9-2,7.9-0.9c1.3,0.7,2.2,1.8,2.8,3.2c0.6,1.5,0.8,3.1,0.6,4.8
	c-0.5,4.3-3.8,9.2-11.1,12.2c-0.1,0-0.2,0-0.3,0l0,0C3.9,17.9,0.6,13,0.1,8.7c-0.2-1.6,0-3.3,0.6-4.8C1.2,2.6,2.2,1.5,3.5,0.8z"/>
</svg>
