<?xml version="1.0" encoding="utf-8"?>
<!-- Generator: Adobe Illustrator 23.0.6, SVG Export Plug-In . SVG Version: 6.00 Build 0)  -->
<svg version="1.1" id="Calque_1" xmlns="http://www.w3.org/2000/svg" xmlns:xlink="http://www.w3.org/1999/xlink" x="0px" y="0px"
	 viewBox="0 0 22.8 19.7" style="enable-background:new 0 0 22.8 19.7;" xml:space="preserve">
<style type="text/css">
	.st0{fill:#FFFFFF;}
</style>
<g transform="translate(2.79 24.507) rotate(-97)">
	<g transform="translate(0 0)">
		<path class="st0" d="M16.4,4L16.4,4c1.8,1.8,1.8,4.7,0,6.5c0,0,0,0,0,0l0,0c-1.8,1.8-4.7,1.8-6.5,0S8.1,5.8,9.9,4S14.6,2.2,16.4,4
			C16.4,4,16.4,4,16.4,4z M16.1,4.3L16.1,4.3c-1.6-1.6-4.3-1.6-5.9,0s-1.6,4.3,0,5.9c1.6,1.6,4.3,1.6,5.9,0l0,0
			C17.7,8.5,17.7,5.9,16.1,4.3z"/>
		<path class="st0" d="M10.2,10.5l-1.5,1.5l-0.3-0.3l1.5-1.5L10.2,10.5z"/>
		<path class="st0" d="M8,10.8l1.6,1.6l0.2,0.2l-0.2,0.2l-4.2,4.2L5.3,17l-0.2-0.2l-1.6-1.6l-0.2-0.2L3.5,15l4.2-4.2l0.2-0.2L8,10.8
			z M9.1,12.6l-1.3-1.3L4,15.1l1.3,1.3L9.1,12.6z"/>
	</g>
</g>
</svg>
