<svg xmlns="http://www.w3.org/2000/svg" width="25.516" height="22.955" viewBox="0 0 25.516 22.955"><g transform="translate(2.79 24.507) rotate(-97)"><g transform="translate(0 0)"><path d="M12.477,2.142h0a7.305,7.305,0,0,1,0,10.335h0a7.309,7.309,0,1,1,0-10.335Zm-.5.5h0a6.594,6.594,0,1,0,0,9.331h0a6.6,6.6,0,0,0,0-9.331Z" transform="translate(8.278 0)" fill="#fff"/><path d="M2.8.5.5,2.8,0,2.3,2.3,0Z" transform="translate(8.123 11.973)" fill="#fff"/><path d="M7.345.253,9.909,2.817l.249.249-.249.253L3.315,9.909l-.249.253-.253-.253L.249,7.349,0,7.1l.249-.249L6.843.253,7.092,0ZM9.153,3.066,7.092,1.009,1,7.1,3.066,9.158Z" transform="translate(0 12.735)" fill="#fff"/></g></g></svg>